# xmcd CD database file
#
# Track frame offsets:
#	150
#	18075
#	48560
#
# Disc length: 952 seconds
#
# Revision: 0
# Processed by: cddbd v1.5PL3 Copyright (c) Steve Scherf et al.
# Submitted via: CDex 1.51
#
DISCID=1a03b603
DTITLE=SPARTA LOCALS - ピース
DYEAR=2003
DGENRE=Rock
TTITLE0=ピース
TTITLE1=ワールド
TTITLE2=君がねむる丘
EXTD=YEAR: 2003
EXTT0=
EXTT1=
EXTT2=
PLAYORDER=
